<svg version="1.1" xmlns="http://www.w3.org/2000/svg" viewBox="0 0 1351.6221466064453 683.5170288085938" width="2703.2442932128906" height="1367.0340576171875">
  <!-- svg-source:excalidraw -->
  
  <defs>
    <style class="style-fonts">
      @font-face {
        font-family: "Virgil";
        src: url("https://excalidraw.com/Virgil.woff2");
      }
      @font-face {
        font-family: "Cascadia";
        src: url("https://excalidraw.com/Cascadia.woff2");
      }
    </style>
  </defs>
  <rect x="0" y="0" width="1351.6221466064453" height="683.5170288085938" fill="#ffffff"></rect><g stroke-opacity="0.1" fill-opacity="0.1" stroke-linecap="round" transform="translate(10 10) rotate(0 643.7509841918945 331.7585144042969)"><path d="M32 0 L1255.5 0 L1263 0.5 L1269.5 2 L1275 4.5 L1279.5 8 L1283 12.5 L1285.5 18 L1287 24.5 L1287.5 32 L1287.5 631.52 L1287 639.02 L1285.5 645.52 L1283 651.02 L1279.5 655.52 L1275 659.02 L1269.5 661.52 L1263 663.02 L1255.5 663.52 L32 663.52 L24.5 663.02 L18 661.52 L12.5 659.02 L8 655.52 L4.5 651.02 L2 645.52 L0.5 639.02 L0 631.52 L0 32 L0.5 24.5 L2 18 L4.5 12.5 L8 8 L12.5 4.5 L18 2 L24.5 0.5 L32 0" stroke="none" stroke-width="0" fill="#000"></path><path d="M32 0 M32 0 C420.1 0, 808.19 0, 1255.5 0 M32 0 C388.95 0, 745.9 0, 1255.5 0 M1255.5 0 C1276.84 0, 1287.5 10.67, 1287.5 32 M1255.5 0 C1276.84 0, 1287.5 10.67, 1287.5 32 M1287.5 32 C1287.5 270.41, 1287.5 508.82, 1287.5 631.52 M1287.5 32 C1287.5 172.89, 1287.5 313.79, 1287.5 631.52 M1287.5 631.52 C1287.5 652.85, 1276.84 663.52, 1255.5 663.52 M1287.5 631.52 C1287.5 652.85, 1276.84 663.52, 1255.5 663.52 M1255.5 663.52 C979.73 663.52, 703.95 663.52, 32 663.52 M1255.5 663.52 C908.64 663.52, 561.77 663.52, 32 663.52 M32 663.52 C10.67 663.52, 0 652.85, 0 631.52 M32 663.52 C10.67 663.52, 0 652.85, 0 631.52 M0 631.52 C0 427.93, 0 224.34, 0 32 M0 631.52 C0 425.04, 0 218.56, 0 32 M0 32 C0 10.67, 10.67 0, 32 0 M0 32 C0 10.67, 10.67 0, 32 0" stroke="#364fc7" stroke-width="1" fill="none"></path></g><g stroke-linecap="round"><g transform="translate(127.66416931152344 101.71682739257812) rotate(0 -0.3810577392578125 163.4246063232422)"><path d="M0 0 C-0.13 54.47, -0.64 272.37, -0.76 326.85 M0 0 C-0.13 54.47, -0.64 272.37, -0.76 326.85" stroke="#000000" stroke-width="2" fill="none"></path></g></g><mask></mask><g stroke-linecap="round"><g transform="translate(126.85639953613281 428.38323974609375) rotate(0 522.6910095214844 0.422149658203125)"><path d="M0 0 C174.23 0.14, 871.15 0.7, 1045.38 0.84 M0 0 C174.23 0.14, 871.15 0.7, 1045.38 0.84" stroke="#000000" stroke-width="1" fill="none"></path></g><g transform="translate(126.85639953613281 428.38323974609375) rotate(0 522.6910095214844 0.422149658203125)"><path d="M1045.38 0.84 L1031.78 7.17 L1031.79 -5.51 L1045.38 0.84" stroke="none" stroke-width="0" fill="#000000" fill-rule="evenodd"></path><path d="M1045.38 0.84 C1041.03 2.87, 1036.68 4.9, 1031.78 7.17 M1045.38 0.84 C1041.33 2.73, 1037.28 4.61, 1031.78 7.17 M1031.78 7.17 C1031.78 4.16, 1031.79 1.15, 1031.79 -5.51 M1031.78 7.17 C1031.79 2.59, 1031.79 -2, 1031.79 -5.51 M1031.79 -5.51 C1036.48 -3.31, 1041.18 -1.12, 1045.38 0.84 M1031.79 -5.51 C1036.33 -3.39, 1040.86 -1.27, 1045.38 0.84 M1045.38 0.84 C1045.38 0.84, 1045.38 0.84, 1045.38 0.84 M1045.38 0.84 C1045.38 0.84, 1045.38 0.84, 1045.38 0.84" stroke="#000000" stroke-width="1" fill="none"></path></g></g><mask></mask><g transform="translate(1129.8548736572266 450.30438232421875) rotate(0 31.5 16)"><text x="0" y="26" font-family="Cascadia, Segoe UI Emoji" font-size="26.36433919270833px" fill="#000000" text-anchor="start" style="white-space: pre;" direction="ltr">time</text></g><g transform="translate(36.55226037621969 241.2934338471166) rotate(270.4903023029108 61.5 21)"><text x="0" y="34" font-family="Cascadia, Segoe UI Emoji" font-size="34.833012788463925px" fill="#000000" text-anchor="start" style="white-space: pre;" direction="ltr">return</text></g><g stroke-linecap="round"><g transform="translate(243.11354064941406 148.15960693359375) rotate(0 445.5694885253906 123.43606567382812)"><path d="M0 0 C9.24 14.38, 35.26 63.13, 55.45 86.28 C75.63 109.43, 90.07 124.36, 121.13 138.89 C152.2 153.43, 199.45 164.01, 241.85 173.5 C284.25 182.98, 326.61 188.08, 375.53 195.81 C424.44 203.55, 480.95 213.61, 535.33 219.9 C589.72 226.2, 642.52 229.09, 701.82 233.59 C761.12 238.08, 859.59 244.66, 891.14 246.87 M0 0 C9.24 14.38, 35.26 63.13, 55.45 86.28 C75.63 109.43, 90.07 124.36, 121.13 138.89 C152.2 153.43, 199.45 164.01, 241.85 173.5 C284.25 182.98, 326.61 188.08, 375.53 195.81 C424.44 203.55, 480.95 213.61, 535.33 219.9 C589.72 226.2, 642.52 229.09, 701.82 233.59 C761.12 238.08, 859.59 244.66, 891.14 246.87" stroke="#364fc7" stroke-width="4" fill="none"></path></g></g><mask></mask><g stroke-linecap="round"><g transform="translate(1132.742691040039 292.5211181640625) rotate(0 1.65533447265625 68.61407470703125)"><path d="M0 0 C0.55 22.87, 2.76 114.36, 3.31 137.23 M0 0 C0.55 22.87, 2.76 114.36, 3.31 137.23" stroke="#e9380f" stroke-width="2" fill="none"></path></g></g><mask></mask><g transform="translate(1081.835708618164 261.60540771484375) rotate(0 50 11.5)"><text x="0" y="19" font-family="Helvetica, Segoe UI Emoji" font-size="20px" fill="#e9380f" text-anchor="start" style="white-space: pre;" direction="ltr">termination</text></g><g stroke-linecap="round"><g transform="translate(242.3699493408203 127.58578491210938) rotate(0 1.676513671875 151.09072875976562)"><path d="M0 0 C0.56 50.36, 2.79 251.82, 3.35 302.18 M0 0 C0.56 50.36, 2.79 251.82, 3.35 302.18" stroke="#087f5b" stroke-width="2" fill="none"></path></g></g><mask></mask><g transform="translate(197.6474151611328 101.71783447265625) rotate(0 71.5 11.5)"><text x="0" y="19" font-family="Helvetica, Segoe UI Emoji" font-size="20px" fill="#087f5b" text-anchor="start" style="white-space: pre;" direction="ltr">commencement</text></g><g transform="translate(212.9119110107422 456.14666748046875) rotate(0 32 34.5)"><text x="32" y="19" font-family="Helvetica, Segoe UI Emoji" font-size="20px" fill="#087f5b" text-anchor="middle" style="white-space: pre;" direction="ltr">first</text><text x="32" y="42" font-family="Helvetica, Segoe UI Emoji" font-size="20px" fill="#087f5b" text-anchor="middle" style="white-space: pre;" direction="ltr">income</text><text x="32" y="65" font-family="Helvetica, Segoe UI Emoji" font-size="20px" fill="#087f5b" text-anchor="middle" style="white-space: pre;" direction="ltr">flow</text></g><g transform="translate(528.9922027587891 233.711669921875) rotate(0 6.5 12)"><text x="6.5" y="20" font-family="Cascadia, Segoe UI Emoji" font-size="20px" fill="#364fc7" text-anchor="middle" style="white-space: pre;" direction="ltr">e</text></g><g transform="translate(542.8957672119141 224.06756591796875) rotate(0 18 12)"><text x="18" y="20" font-family="Cascadia, Segoe UI Emoji" font-size="20px" fill="#364fc7" text-anchor="middle" style="white-space: pre;" direction="ltr">-λt</text></g><g stroke-linecap="round"><g transform="translate(136.39439392089844 149.8521728515625) rotate(0 51.44572448730469 0.0424041748046875)"><path d="M0 0 C17.15 0.01, 85.74 0.07, 102.89 0.08 M0 0 C17.15 0.01, 85.74 0.07, 102.89 0.08" stroke="#862e9c" stroke-width="1" fill="none"></path></g><g transform="translate(136.39439392089844 149.8521728515625) rotate(0 51.44572448730469 0.0424041748046875)"><path d="M8 0 C8 0.46, 7.96 0.93, 7.88 1.39 C7.8 1.85, 7.68 2.3, 7.52 2.74 C7.36 3.17, 7.16 3.6, 6.93 4 C6.7 4.4, 6.43 4.79, 6.13 5.14 C5.83 5.5, 5.5 5.83, 5.14 6.13 C4.79 6.43, 4.4 6.7, 4 6.93 C3.6 7.16, 3.17 7.36, 2.74 7.52 C2.3 7.68, 1.85 7.8, 1.39 7.88 C0.93 7.96, 0.46 8, 0 8 C-0.46 8, -0.93 7.96, -1.39 7.88 C-1.85 7.8, -2.3 7.68, -2.74 7.52 C-3.17 7.36, -3.6 7.16, -4 6.93 C-4.4 6.7, -4.79 6.43, -5.14 6.13 C-5.5 5.83, -5.83 5.5, -6.13 5.14 C-6.43 4.79, -6.7 4.4, -6.93 4 C-7.16 3.6, -7.36 3.17, -7.52 2.74 C-7.68 2.3, -7.8 1.85, -7.88 1.39 C-7.96 0.93, -8 0.46, -8 0 C-8 -0.46, -7.96 -0.93, -7.88 -1.39 C-7.8 -1.85, -7.68 -2.3, -7.52 -2.74 C-7.36 -3.17, -7.16 -3.6, -6.93 -4 C-6.7 -4.4, -6.43 -4.79, -6.13 -5.14 C-5.83 -5.5, -5.5 -5.83, -5.14 -6.13 C-4.79 -6.43, -4.4 -6.7, -4 -6.93 C-3.6 -7.16, -3.17 -7.36, -2.74 -7.52 C-2.3 -7.68, -1.85 -7.8, -1.39 -7.88 C-0.93 -7.96, -0.46 -8, 0 -8 C0.46 -8, 0.93 -7.96, 1.39 -7.88 C1.85 -7.8, 2.3 -7.68, 2.74 -7.52 C3.17 -7.36, 3.6 -7.16, 4 -6.93 C4.4 -6.7, 4.79 -6.43, 5.14 -6.13 C5.5 -5.83, 5.83 -5.5, 6.13 -5.14 C6.43 -4.79, 6.7 -4.4, 6.93 -4 C7.16 -3.6, 7.36 -3.17, 7.52 -2.74 C7.68 -2.3, 7.8 -1.85, 7.88 -1.39 C7.96 -0.93, 7.98 -0.23, 8 0 C8.02 0.23, 8.02 -0.23, 8 0" stroke="none" stroke-width="0" fill="#862e9c"></path></g><g transform="translate(136.39439392089844 149.8521728515625) rotate(0 51.44572448730469 0.0424041748046875)"><path d="M102.88 15.08 C102.88 10.07, 102.89 5.05, 102.89 0.08 M102.88 15.08 C102.88 9.51, 102.89 3.94, 102.89 0.08" stroke="#862e9c" stroke-width="1" fill="none"></path></g><g transform="translate(136.39439392089844 149.8521728515625) rotate(0 51.44572448730469 0.0424041748046875)"><path d="M102.9 -14.92 C102.9 -9.9, 102.9 -4.88, 102.89 0.08 M102.9 -14.92 C102.9 -9.34, 102.89 -3.77, 102.89 0.08" stroke="#862e9c" stroke-width="1" fill="none"></path></g></g><mask></mask><g transform="translate(89.76841735839844 452.12347412109375) rotate(0 37 23)"><text x="37" y="19" font-family="Helvetica, Segoe UI Emoji" font-size="20px" fill="#862e9c" text-anchor="middle" style="white-space: pre;" direction="ltr">creditor</text><text x="37" y="42" font-family="Helvetica, Segoe UI Emoji" font-size="20px" fill="#862e9c" text-anchor="middle" style="white-space: pre;" direction="ltr">initiation</text></g><g transform="translate(45.88426208496094 565.9650268554688) rotate(0 76.5 48)"><text x="76.5" y="20" font-family="Cascadia, Segoe UI Emoji" font-size="20px" fill="#862e9c" text-anchor="middle" style="white-space: pre;" direction="ltr">priced</text><text x="76.5" y="44" font-family="Cascadia, Segoe UI Emoji" font-size="20px" fill="#862e9c" text-anchor="middle" style="white-space: pre;" direction="ltr">in token</text><text x="76.5" y="68" font-family="Cascadia, Segoe UI Emoji" font-size="20px" fill="#862e9c" text-anchor="middle" style="white-space: pre;" direction="ltr">or non-fiat</text><text x="76.5" y="92" font-family="Cascadia, Segoe UI Emoji" font-size="20px" fill="#862e9c" text-anchor="middle" style="white-space: pre;" direction="ltr">pricing index</text></g><g stroke-linecap="round"><g transform="translate(251.56407165527344 602.668701171875) rotate(0 460.38612365722656 -3.000030517578125)"><path d="M0 0 C153.46 -1, 767.31 -5, 920.77 -6 M0 0 C153.46 -1, 767.31 -5, 920.77 -6" stroke="#000000" stroke-width="1" fill="none"></path></g><g transform="translate(251.56407165527344 602.668701171875) rotate(0 460.38612365722656 -3.000030517578125)"><path d="M8 0 C8 0.46, 7.96 0.93, 7.88 1.39 C7.8 1.85, 7.68 2.3, 7.52 2.74 C7.36 3.17, 7.16 3.6, 6.93 4 C6.7 4.4, 6.43 4.79, 6.13 5.14 C5.83 5.5, 5.5 5.83, 5.14 6.13 C4.79 6.43, 4.4 6.7, 4 6.93 C3.6 7.16, 3.17 7.36, 2.74 7.52 C2.3 7.68, 1.85 7.8, 1.39 7.88 C0.93 7.96, 0.46 8, 0 8 C-0.46 8, -0.93 7.96, -1.39 7.88 C-1.85 7.8, -2.3 7.68, -2.74 7.52 C-3.17 7.36, -3.6 7.16, -4 6.93 C-4.4 6.7, -4.79 6.43, -5.14 6.13 C-5.5 5.83, -5.83 5.5, -6.13 5.14 C-6.43 4.79, -6.7 4.4, -6.93 4 C-7.16 3.6, -7.36 3.17, -7.52 2.74 C-7.68 2.3, -7.8 1.85, -7.88 1.39 C-7.96 0.93, -8 0.46, -8 0 C-8 -0.46, -7.96 -0.93, -7.88 -1.39 C-7.8 -1.85, -7.68 -2.3, -7.52 -2.74 C-7.36 -3.17, -7.16 -3.6, -6.93 -4 C-6.7 -4.4, -6.43 -4.79, -6.13 -5.14 C-5.83 -5.5, -5.5 -5.83, -5.14 -6.13 C-4.79 -6.43, -4.4 -6.7, -4 -6.93 C-3.6 -7.16, -3.17 -7.36, -2.74 -7.52 C-2.3 -7.68, -1.85 -7.8, -1.39 -7.88 C-0.93 -7.96, -0.46 -8, 0 -8 C0.46 -8, 0.93 -7.96, 1.39 -7.88 C1.85 -7.8, 2.3 -7.68, 2.74 -7.52 C3.17 -7.36, 3.6 -7.16, 4 -6.93 C4.4 -6.7, 4.79 -6.43, 5.14 -6.13 C5.5 -5.83, 5.83 -5.5, 6.13 -5.14 C6.43 -4.79, 6.7 -4.4, 6.93 -4 C7.16 -3.6, 7.36 -3.17, 7.52 -2.74 C7.68 -2.3, 7.8 -1.85, 7.88 -1.39 C7.96 -0.93, 7.98 -0.23, 8 0 C8.02 0.23, 8.02 -0.23, 8 0" stroke="none" stroke-width="0" fill="#000000"></path></g><g transform="translate(251.56407165527344 602.668701171875) rotate(0 460.38612365722656 -3.000030517578125)"><path d="M920.77 -6 L907.22 0.43 L907.14 -12.25 L920.77 -6" stroke="none" stroke-width="0" fill="#000000" fill-rule="evenodd"></path><path d="M920.77 -6 C917.25 -4.33, 913.74 -2.66, 907.22 0.43 M920.77 -6 C916.23 -3.85, 911.69 -1.69, 907.22 0.43 M907.22 0.43 C907.2 -3.23, 907.17 -6.88, 907.14 -12.25 M907.22 0.43 C907.19 -4.06, 907.16 -8.56, 907.14 -12.25 M907.14 -12.25 C909.97 -10.95, 912.81 -9.65, 920.77 -6 M907.14 -12.25 C910.37 -10.77, 913.6 -9.29, 920.77 -6 M920.77 -6 C920.77 -6, 920.77 -6, 920.77 -6 M920.77 -6 C920.77 -6, 920.77 -6, 920.77 -6" stroke="#000000" stroke-width="1" fill="none"></path></g></g><mask></mask><g transform="translate(675.8647003173828 618.9060668945312) rotate(0 24 12)"><text x="24" y="20" font-family="Cascadia, Segoe UI Emoji" font-size="20px" fill="#000000" text-anchor="middle" style="white-space: pre;" direction="ltr">term</text></g><g transform="translate(594.8029327392578 234.341552734375) rotate(0 110 11.5)"><text x="0" y="19" font-family="Helvetica, Segoe UI Emoji" font-size="20px" fill="#364fc7" text-anchor="start" style="white-space: pre;" direction="ltr">diminishing return period</text></g><g transform="translate(452.0559844970703 358.96844482421875) rotate(0 120 23)"><text x="0" y="19" font-family="Helvetica, Segoe UI Emoji" font-size="20px" fill="#364fc7" text-anchor="start" style="white-space: pre;" direction="ltr">percentage of</text><text x="0" y="42" font-family="Helvetica, Segoe UI Emoji" font-size="20px" fill="#364fc7" text-anchor="start" style="white-space: pre;" direction="ltr">income returned to creditor</text></g><g stroke-linecap="round"><g stroke-opacity="0.9" fill-opacity="0.9" transform="translate(169.81861877441406 141.44271850585938) rotate(0 -0.5630395338824314 -31.139556884765625)"><path d="M0 0 C-0.19 -10.38, -0.94 -51.9, -1.13 -62.28 M0 0 C-0.19 -10.38, -0.94 -51.9, -1.13 -62.28" stroke="#000000" stroke-width="1" fill="none"></path></g><g stroke-opacity="0.9" fill-opacity="0.9" transform="translate(169.81861877441406 141.44271850585938) rotate(0 -0.5630395338824314 -31.139556884765625)"><path d="M13.87 -62.55 C8.29 -62.45, 2.7 -62.35, -1.13 -62.28 M13.87 -62.55 C9.27 -62.47, 4.67 -62.38, -1.13 -62.28" stroke="#000000" stroke-width="1" fill="none"></path></g><g stroke-opacity="0.9" fill-opacity="0.9" transform="translate(169.81861877441406 141.44271850585938) rotate(0 -0.5630395338824314 -31.139556884765625)"><path d="M-16.12 -62.01 C-10.54 -62.11, -4.95 -62.21, -1.13 -62.28 M-16.12 -62.01 C-11.52 -62.09, -6.92 -62.17, -1.13 -62.28" stroke="#000000" stroke-width="1" fill="none"></path></g></g><mask></mask><g stroke-opacity="0.9" fill-opacity="0.9" transform="translate(134.10203552246094 14.204620361328125) rotate(0 40 31.5)"><text x="40" y="15" font-family="Virgil, Segoe UI Emoji" font-size="16.689705016121035px" fill="#000000" text-anchor="middle" style="white-space: pre;" direction="ltr">non-fiat</text><text x="40" y="36" font-family="Virgil, Segoe UI Emoji" font-size="16.689705016121035px" fill="#000000" text-anchor="middle" style="white-space: pre;" direction="ltr">numeraire</text><text x="40" y="57" font-family="Virgil, Segoe UI Emoji" font-size="16.689705016121035px" fill="#000000" text-anchor="middle" style="white-space: pre;" direction="ltr">set value</text></g><g stroke-opacity="0.9" fill-opacity="0.9" transform="translate(1130.6221466064453 562.0794677734375) rotate(0 105.5 42)"><text x="105.5" y="15" font-family="Virgil, Segoe UI Emoji" font-size="16.689705016121035px" fill="#000000" text-anchor="middle" style="white-space: pre;" direction="ltr">termination</text><text x="105.5" y="36" font-family="Virgil, Segoe UI Emoji" font-size="16.689705016121035px" fill="#000000" text-anchor="middle" style="white-space: pre;" direction="ltr">via</text><text x="105.5" y="57" font-family="Virgil, Segoe UI Emoji" font-size="16.689705016121035px" fill="#000000" text-anchor="middle" style="white-space: pre;" direction="ltr">time period</text><text x="105.5" y="78" font-family="Virgil, Segoe UI Emoji" font-size="16.689705016121035px" fill="#000000" text-anchor="middle" style="white-space: pre;" direction="ltr">or payback multiple.      </text></g></svg>