<svg version="1.1" xmlns="http://www.w3.org/2000/svg" viewBox="0 0 1473.7714385986328 626.6666799804688" width="2947.5428771972656" height="1253.3333599609375">
  <!-- svg-source:excalidraw -->
  
  <defs>
    <style class="style-fonts">
      @font-face {
        font-family: "Virgil";
        src: url("https://excalidraw.com/Virgil.woff2");
      }
      @font-face {
        font-family: "Cascadia";
        src: url("https://excalidraw.com/Cascadia.woff2");
      }
    </style>
  </defs>
  <rect x="0" y="0" width="1473.7714385986328" height="626.6666799804688" fill="#ffffff"></rect><g stroke-linecap="round"><g transform="translate(66.49639892578125 225.87505400390626) rotate(0 656.683878248854 -3.8530573276889015)"><path d="M0 0 C218.89 -1.28, 1094.47 -6.42, 1313.37 -7.71 M0 0 C218.89 -1.28, 1094.47 -6.42, 1313.37 -7.71" stroke="#000000" stroke-width="2" fill="none"></path></g></g><mask></mask><g stroke-linecap="round"><g transform="translate(247.94393920898438 202.404778125) rotate(0 0.1561431884765625 27.258758544921875)"><path d="M0 0 C0.05 9.09, 0.26 45.43, 0.31 54.52 M0 0 C0.05 9.09, 0.26 45.43, 0.31 54.52" stroke="#000000" stroke-width="2" fill="none"></path></g></g><mask></mask><g transform="translate(349.1636657714844 10) rotate(0 407 21.5)"><text x="0" y="30" font-family="Virgil, Segoe UI Emoji" font-size="33.94201640625002px" fill="#bf09fd" text-anchor="start" style="white-space: pre;" direction="ltr">Blockchain &amp; Byzantine Fault Tolerance Timeline</text></g><g transform="translate(228.90322875976562 161.63970244140626) rotate(0 32 16)"><text x="0" y="26" font-family="Helvetica, Segoe UI Emoji" font-size="28px" fill="#5f3dc4" text-anchor="start" style="white-space: pre;" direction="ltr">1982</text></g><g transform="translate(172.44903564453125 261.5067068359375) rotate(0 118.5 11.5)"><text x="0" y="19" font-family="Helvetica, Segoe UI Emoji" font-size="20px" fill="#5f3dc4" text-anchor="start" style="white-space: pre;" direction="ltr">Lamport, Shostack, Pease</text></g><g transform="translate(143.62136840820312 294.96477568359376) rotate(0 151.5 13.5)"><text x="0" y="22" font-family="Helvetica, Segoe UI Emoji" font-size="23.674880981445312px" fill="#5f3dc4" text-anchor="start" style="white-space: pre;" direction="ltr">Byzantine Generals Problem</text></g><g transform="translate(891.9032287597656 146.19919645996094) rotate(0 32 16)"><text x="0" y="26" font-family="Helvetica, Segoe UI Emoji" font-size="28px" fill="#ee2c2a" text-anchor="start" style="white-space: pre;" direction="ltr">1997</text></g><g transform="translate(229.94357299804688 123.12513029785157) rotate(0 32 16)"><text x="0" y="26" font-family="Helvetica, Segoe UI Emoji" font-size="28px" fill="#0b7285" text-anchor="start" style="white-space: pre;" direction="ltr">1982</text></g><g transform="translate(255.03173828125 338.1181265136719) rotate(0 33 11.5)"><text x="0" y="19" font-family="Helvetica, Segoe UI Emoji" font-size="20px" fill="#0b7285" text-anchor="start" style="white-space: pre;" direction="ltr">Chaum</text></g><g transform="translate(153.20407104492188 371.57619536132813) rotate(0 134 27)"><text x="134" y="22" font-family="Helvetica, Segoe UI Emoji" font-size="23.674880981445312px" fill="#0b7285" text-anchor="middle" style="white-space: pre;" direction="ltr">Double Spend Problem &amp;</text><text x="134" y="49" font-family="Helvetica, Segoe UI Emoji" font-size="23.674880981445312px" fill="#0b7285" text-anchor="middle" style="white-space: pre;" direction="ltr">Blind Signatures</text></g><g stroke-linecap="round"><g transform="translate(775.6811981201172 203.00319731445313) rotate(0 1.2501983642578125 70.40631103515625)"><path d="M0 0 C0.42 23.47, 2.08 117.34, 2.5 140.81 M0 0 C0.42 23.47, 2.08 117.34, 2.5 140.81" stroke="#862e9c" stroke-width="2" fill="none"></path></g></g><mask></mask><g transform="translate(743.9032287597656 160.63970244140626) rotate(0 32 16)"><text x="0" y="26" font-family="Helvetica, Segoe UI Emoji" font-size="28px" fill="#862e9c" text-anchor="start" style="white-space: pre;" direction="ltr">1994</text></g><g transform="translate(746.2195129394531 360.07390654296876) rotate(0 29.5 11.5)"><text x="0" y="19" font-family="Helvetica, Segoe UI Emoji" font-size="20px" fill="#862e9c" text-anchor="start" style="white-space: pre;" direction="ltr">Szabo</text></g><g transform="translate(689.3650817871094 386.67583525390626) rotate(0 86.5 13.5)"><text x="0" y="22" font-family="Helvetica, Segoe UI Emoji" font-size="23.674880981445312px" fill="#862e9c" text-anchor="start" style="white-space: pre;" direction="ltr">Smart Contracts</text></g><g transform="translate(1041.2103204727173 390.8878205588071) rotate(0 116 13)"><text x="116" y="21" font-family="Helvetica, Segoe UI Emoji" font-size="22.09042991143445px" fill="#5f3dc4" text-anchor="middle" style="white-space: pre;" direction="ltr">Micali, Rabin and Kilian</text></g><g stroke-linecap="round"><g transform="translate(1153.918228149414 177.47271025390626) rotate(0 2.1600494384765625 99.531494140625)"><path d="M0 0 C0.72 33.18, 3.6 165.89, 4.32 199.06 M0 0 C0.72 33.18, 3.6 165.89, 4.32 199.06" stroke="#5f3dc4" stroke-width="2" fill="none"></path></g></g><mask></mask><g transform="translate(1122.9032287597656 131.2891775390625) rotate(0 32 16)"><text x="0" y="26" font-family="Helvetica, Segoe UI Emoji" font-size="28px" fill="#364fc7" text-anchor="start" style="white-space: pre;" direction="ltr">2003</text></g><g transform="translate(1022.6919250488281 423.01946318359376) rotate(0 136 13.5)"><text x="136" y="22" font-family="Helvetica, Segoe UI Emoji" font-size="23.674880981445312px" fill="#5f3dc4" text-anchor="middle" style="white-space: pre;" direction="ltr">Zero Knowledge Systems</text></g><g stroke-linecap="round"><g transform="translate(923.6811981201172 188.56269133300782) rotate(0 0.1561431884765625 27.258758544921875)"><path d="M0 0 C0.05 9.09, 0.26 45.43, 0.31 54.52 M0 0 C0.05 9.09, 0.26 45.43, 0.31 54.52" stroke="#ee2c2a" stroke-width="2" fill="none"></path></g></g><mask></mask><g stroke-linecap="round"><g transform="translate(923.3989410400391 242.17659819335938) rotate(0 -29.400863647460938 -0.1585540771484375)"><path d="M0 0 C-9.8 -0.05, -49 -0.26, -58.8 -0.32 M0 0 C-9.8 -0.05, -49 -0.26, -58.8 -0.32" stroke="#ee2c2a" stroke-width="2" fill="none"></path></g></g><mask></mask><g stroke-linecap="round"><g transform="translate(868.9315338134766 519.2576528808594) rotate(0 -2.2823944091796875 -137.88430786132812)"><path d="M0 0 C-0.76 -45.96, -3.8 -229.81, -4.56 -275.77 M0 0 C-0.76 -45.96, -3.8 -229.81, -4.56 -275.77" stroke="#ee2c2a" stroke-width="2" fill="none"></path></g></g><mask></mask><g transform="translate(834.7053527832031 524.8507009765625) rotate(0 23 11.5)"><text x="23" y="19" font-family="Helvetica, Segoe UI Emoji" font-size="20px" fill="#ee2c2a" text-anchor="middle" style="white-space: pre;" direction="ltr">Back</text></g><g transform="translate(787.7611999511719 557.1058889648438) rotate(0 73 27)"><text x="73" y="22" font-family="Helvetica, Segoe UI Emoji" font-size="23.674880981445312px" fill="#ee2c2a" text-anchor="middle" style="white-space: pre;" direction="ltr">HashCash</text><text x="73" y="49" font-family="Helvetica, Segoe UI Emoji" font-size="23.674880981445312px" fill="#ee2c2a" text-anchor="middle" style="white-space: pre;" direction="ltr">Proof of Work</text></g><g transform="translate(60.2957763671875 154.558830859375) rotate(0 32 16)"><text x="0" y="26" font-family="Helvetica, Segoe UI Emoji" font-size="28px" fill="#087f5b" text-anchor="start" style="white-space: pre;" direction="ltr">1978</text></g><g stroke-linecap="round"><g transform="translate(91.74708557128906 201.38094389648438) rotate(0 1.0430450439453125 187.95443725585938)"><path d="M0 0 C0.35 62.65, 1.74 313.26, 2.09 375.91 M0 0 C0.35 62.65, 1.74 313.26, 2.09 375.91" stroke="#087f5b" stroke-width="2" fill="none"></path></g></g><mask></mask><g transform="translate(10 589.6666799804688) rotate(0 83 13.5)"><text x="83" y="22" font-family="Helvetica, Segoe UI Emoji" font-size="23.674880981445312px" fill="#087f5b" text-anchor="middle" style="white-space: pre;" direction="ltr">Lamport Clocks</text></g><g transform="translate(354.9032287597656 159.05164396972657) rotate(0 32 16)"><text x="0" y="26" font-family="Helvetica, Segoe UI Emoji" font-size="28px" fill="#acbd3a" text-anchor="start" style="white-space: pre;" direction="ltr">1985</text></g><g stroke-linecap="round"><g transform="translate(388.23756408691406 199.66001188964844) rotate(0 -0.201263427734375 28.99700927734375)"><path d="M0 0 C-0.07 9.67, -0.34 48.33, -0.4 57.99 M0 0 C-0.07 9.67, -0.34 48.33, -0.4 57.99" stroke="#acbd3a" stroke-width="2" fill="none"></path></g></g><mask></mask><g stroke-linecap="round"><g transform="translate(387.7375030517578 257.99053251953126) rotate(0 41.75309753417969 0.098602294921875)"><path d="M0 0 C13.92 0.03, 69.59 0.16, 83.51 0.2 M0 0 C13.92 0.03, 69.59 0.16, 83.51 0.2" stroke="#acbd3a" stroke-width="2" fill="none"></path></g></g><mask></mask><g stroke-linecap="round"><g transform="translate(471.5700225830078 258.118401171875) rotate(0 0.3196258544921875 98.85812377929688)"><path d="M0 0 C0.11 32.95, 0.53 164.76, 0.64 197.72 M0 0 C0.11 32.95, 0.53 164.76, 0.64 197.72" stroke="#acbd3a" stroke-width="2" fill="none"></path></g></g><mask></mask><g transform="translate(329.1996154785156 467.61992705078114) rotate(0 143.5 13)"><text x="143.5" y="21" font-family="Helvetica, Segoe UI Emoji" font-size="22.09042991143445px" fill="#acbd3a" text-anchor="middle" style="white-space: pre;" direction="ltr">Fischer, Lynch and Patterson</text></g><g transform="translate(290.6066589355469 501.21770537109376) rotate(0 181.5 27)"><text x="181.5" y="22" font-family="Helvetica, Segoe UI Emoji" font-size="23.674880981445312px" fill="#acbd3a" text-anchor="middle" style="white-space: pre;" direction="ltr">Safety, Liveness &amp; Fault Tolerance</text><text x="181.5" y="49" font-family="Helvetica, Segoe UI Emoji" font-size="23.674880981445312px" fill="#acbd3a" text-anchor="middle" style="white-space: pre;" direction="ltr">FLP Impossibilty</text></g><g transform="translate(619.4211120605469 160.61248076171876) rotate(0 32 16)"><text x="0" y="26" font-family="Helvetica, Segoe UI Emoji" font-size="28px" fill="#da8ca9" text-anchor="start" style="white-space: pre;" direction="ltr">1991</text></g><g stroke-linecap="round"><g transform="translate(653.8844299316406 194.959465625) rotate(0 0.24505615234375 37.189361572265625)"><path d="M0 0 C0.08 12.4, 0.41 61.98, 0.49 74.38 M0 0 C0.08 12.4, 0.41 61.98, 0.49 74.38" stroke="#da8ca9" stroke-width="2" fill="none"></path></g></g><mask></mask><g stroke-linecap="round"><g transform="translate(654.4938659667969 268.8824087402344) rotate(0 -19.75091552734375 0.14886474609375)"><path d="M0 0 C-6.58 0.05, -32.92 0.25, -39.5 0.3 M0 0 C-6.58 0.05, -32.92 0.25, -39.5 0.3" stroke="#da8ca9" stroke-width="2" fill="none"></path></g></g><mask></mask><g stroke-linecap="round"><g transform="translate(614.6581726074219 269.45034086914063) rotate(0 0.37408447265625 14.76910400390625)"><path d="M0 0 C0.12 4.92, 0.62 24.62, 0.75 29.54 M0 0 C0.12 4.92, 0.62 24.62, 0.75 29.54" stroke="#da8ca9" stroke-width="2" fill="none"></path></g></g><mask></mask><g transform="translate(534.4032287597656 310.13970244140626) rotate(0 81 11.5)"><text x="81" y="19" font-family="Helvetica, Segoe UI Emoji" font-size="20px" fill="#da8ca9" text-anchor="middle" style="white-space: pre;" direction="ltr">Haber &amp; Stornetta</text></g><g transform="translate(549.8249816894531 335.8443533203125) rotate(0 64 13.5)"><text x="64" y="22" font-family="Helvetica, Segoe UI Emoji" font-size="23.674880981445312px" fill="#da8ca9" text-anchor="middle" style="white-space: pre;" direction="ltr">Blockchains</text></g><g transform="translate(104.32060241699219 123.43476164550782) rotate(0 32 16)"><text x="0" y="26" font-family="Helvetica, Segoe UI Emoji" font-size="28px" fill="#eaba0a" text-anchor="start" style="white-space: pre;" direction="ltr">1979</text></g><g stroke-linecap="round"><g transform="translate(138.80252140941644 157.78174650878907) rotate(0 0.10121880309162634 38.99559827345354)"><path d="M0 0 C0.04 5.73, 0.23 21.37, 0.23 34.37 C0.22 47.37, 0.02 70.72, -0.02 77.99 M0 0 C0.04 5.73, 0.23 21.37, 0.23 34.37 C0.22 47.37, 0.02 70.72, -0.02 77.99" stroke="#eaba0a" stroke-width="2" fill="none"></path></g></g><mask></mask><g stroke-linecap="round"><g transform="translate(138.44159532790798 235.33621065233314) rotate(0 -6.885766552862805 -0.09472970056154395)"><path d="M0 0 C-2.3 -0.03, -11.48 -0.16, -13.77 -0.19 M0 0 C-2.3 -0.03, -11.48 -0.16, -13.77 -0.19" stroke="#eaba0a" stroke-width="2" fill="none"></path></g></g><mask></mask><g stroke-linecap="round"><g transform="translate(123.79409389765937 235.86104534344673) rotate(0 1.1782693666657735 110.56806237466336)"><path d="M0 0 C0.39 36.86, 1.96 184.28, 2.36 221.14 M0 0 C0.39 36.86, 1.96 184.28, 2.36 221.14" stroke="#eaba0a" stroke-width="2" fill="none"></path></g></g><mask></mask><g transform="translate(111.24258422851562 467.73632109375) rotate(0 31 11.5)"><text x="0" y="19" font-family="Helvetica, Segoe UI Emoji" font-size="20px" fill="#eaba0a" text-anchor="start" style="white-space: pre;" direction="ltr">Merkle</text></g><g transform="translate(102.97213745117188 488.67449248046876) rotate(0 42.5 32)"><text x="42.5" y="26" font-family="Helvetica, Segoe UI Emoji" font-size="28px" fill="#eaba0a" text-anchor="middle" style="white-space: pre;" direction="ltr">Merkle</text><text x="42.5" y="58" font-family="Helvetica, Segoe UI Emoji" font-size="28px" fill="#eaba0a" text-anchor="middle" style="white-space: pre;" direction="ltr">Trees</text></g><g stroke-linecap="round"><g transform="translate(975.3827684521084 110.51606810302735) rotate(0 1.6813803613481468 71.60756633761133)"><path d="M0 0 C0.56 23.87, 2.8 119.35, 3.36 143.22 M0 0 C0.56 23.87, 2.8 119.35, 3.36 143.22" stroke="#5cad2a" stroke-width="2" fill="none"></path></g></g><mask></mask><g stroke-linecap="round"><g transform="translate(977.8547921411309 253.37742405108838) rotate(0 -42.07160412919802 -0.220395357338532)"><path d="M0 0 C-14.02 -0.07, -70.12 -0.37, -84.14 -0.44 M0 0 C-14.02 -0.07, -70.12 -0.37, -84.14 -0.44" stroke="#5cad2a" stroke-width="2" fill="none"></path></g></g><mask></mask><g stroke-linecap="round"><g transform="translate(897.2170707083708 393.73367369384766) rotate(0 -1.3128700956254988 -70.23592134179952)"><path d="M0 0 C-0.44 -23.41, -2.19 -117.06, -2.63 -140.47 M0 0 C-0.44 -23.41, -2.19 -117.06, -2.63 -140.47" stroke="#5cad2a" stroke-width="2" fill="none"></path></g></g><mask></mask><g stroke-linecap="round"><g transform="translate(952.7590676053915 392.3498669472684) rotate(0 -27.49258651109801 0.3629710594102562)"><path d="M0 0 C-9.16 0.12, -45.82 0.6, -54.99 0.73 M0 0 C-9.16 0.12, -45.82 0.6, -54.99 0.73" stroke="#5cad2a" stroke-width="2" fill="none"></path></g></g><mask></mask><g transform="translate(942.5348205566406 80.5040212890625) rotate(0 32 16)"><text x="0" y="26" font-family="Helvetica, Segoe UI Emoji" font-size="28px" fill="#5cad2a" text-anchor="start" style="white-space: pre;" direction="ltr">1998</text></g><g stroke-linecap="round"><g transform="translate(952.1881569921675 391.8591014358261) rotate(0 0.48795995119189683 28.632071952845706)"><path d="M0 0 C0.16 9.54, 0.81 47.72, 0.98 57.26 M0 0 C0.16 9.54, 0.81 47.72, 0.98 57.26" stroke="#5cad2a" stroke-width="2" fill="none"></path></g></g><mask></mask><g transform="translate(935.8193664550781 455.72295439453114) rotate(0 17.5 13)"><text x="17.5" y="21" font-family="Helvetica, Segoe UI Emoji" font-size="22.09042991143445px" fill="#5cad2a" text-anchor="middle" style="white-space: pre;" direction="ltr">Dai</text></g><g transform="translate(889.8404846191406 479.7181326171875) rotate(0 95.5 27)"><text x="95.5" y="22" font-family="Helvetica, Segoe UI Emoji" font-size="23.674880981445312px" fill="#5cad2a" text-anchor="middle" style="white-space: pre;" direction="ltr">b-money</text><text x="95.5" y="49" font-family="Helvetica, Segoe UI Emoji" font-size="23.674880981445312px" fill="#5cad2a" text-anchor="middle" style="white-space: pre;" direction="ltr">Peer to Peer cash</text></g><g stroke-linecap="round"><g transform="translate(1030.747085571289 203.38094389648438) rotate(0 0.1561431884765625 27.258758544921875)"><path d="M0 0 C0.05 9.09, 0.26 45.43, 0.31 54.52 M0 0 C0.05 9.09, 0.26 45.43, 0.31 54.52" stroke="#8b0000" stroke-width="2" fill="none"></path></g></g><mask></mask><g transform="translate(999.7320861816406 167.19741118164063) rotate(0 32 16)"><text x="0" y="26" font-family="Helvetica, Segoe UI Emoji" font-size="28px" fill="#8b0000" text-anchor="start" style="white-space: pre;" direction="ltr">1999</text></g><g transform="translate(953.4032287597656 263.63970244140614) rotate(0 78.5 13)"><text x="78.5" y="21" font-family="Helvetica, Segoe UI Emoji" font-size="22.09042991143445px" fill="#8b0000" text-anchor="middle" style="white-space: pre;" direction="ltr">Castro &amp; Liskov</text></g><g transform="translate(911.3869934082031 288.62694609375) rotate(0 101 40.5)"><text x="101" y="22" font-family="Helvetica, Segoe UI Emoji" font-size="23.674880981445312px" fill="#8b0000" text-anchor="middle" style="white-space: pre;" direction="ltr">Practical Byzantine</text><text x="101" y="49" font-family="Helvetica, Segoe UI Emoji" font-size="23.674880981445312px" fill="#8b0000" text-anchor="middle" style="white-space: pre;" direction="ltr">Fault Tolerance</text><text x="101" y="76" font-family="Helvetica, Segoe UI Emoji" font-size="23.674880981445312px" fill="#8b0000" text-anchor="middle" style="white-space: pre;" direction="ltr"></text></g><g transform="translate(1051.0080108642578 334.0693019042968) rotate(0 9 20.5)"><text x="0" y="29" font-family="Virgil, Segoe UI Emoji" font-size="31.89146423339834px" fill="#ac2a20" text-anchor="start" style="white-space: pre;" direction="ltr">†</text></g><g transform="translate(977.0630645751953 347.5871852050781) rotate(0 39.5 14)"><text x="39.5" y="23" font-family="Helvetica, Segoe UI Emoji" font-size="24.615826896067414px" fill="#ac2a20" text-anchor="middle" style="white-space: pre;" direction="ltr">(pBFT)</text></g><g stroke-linecap="round"><g transform="translate(1337.918228149414 203.47271025390626) rotate(0 0.1561431884765625 27.258758544921875)"><path d="M0 0 C0.05 9.09, 0.26 45.43, 0.31 54.52 M0 0 C0.05 9.09, 0.26 45.43, 0.31 54.52" stroke="#e67700" stroke-width="2" fill="none"></path></g></g><mask></mask><g transform="translate(1306.9032287597656 167.2891775390625) rotate(0 32 16)"><text x="0" y="26" font-family="Helvetica, Segoe UI Emoji" font-size="28px" fill="#e67700" text-anchor="start" style="white-space: pre;" direction="ltr">2008</text></g><g transform="translate(1227.4696350097656 279.3416677734374) rotate(0 109.5 13)"><text x="109.5" y="21" font-family="Helvetica, Segoe UI Emoji" font-size="22.09042991143445px" fill="#e67700" text-anchor="middle" style="white-space: pre;" direction="ltr">Nakamoto Consensus</text></g><g transform="translate(1281.4955139160156 309.99663603515626) rotate(0 55 13.5)"><text x="55" y="22" font-family="Helvetica, Segoe UI Emoji" font-size="23.674880981445312px" fill="#e67700" text-anchor="middle" style="white-space: pre;" direction="ltr">Nakamoto</text></g><g transform="translate(1441.2698516845703 263.7406886230468) rotate(0 11.25079345703125 27.69426081730768)"><text x="11.250793457031254" y="44.388521634615394" font-family="Helvetica, Segoe UI Emoji" font-size="48.46495643028848px" fill="#e67700" text-anchor="middle" style="white-space: pre;" direction="ltr">*</text></g></svg>